<svg width="220" height="55" viewBox="0 0 220 55" fill="none" xmlns="http://www.w3.org/2000/svg">
<path d="M73.2017 30.4339C73.4909 30.8724 73.8895 31.0704 74.4504 31.0842C75.2145 31.1033 75.7017 30.354 75.7017 30.354L88.363 14.134C89.405 13.0435 90.4392 13.9248 90.4392 13.9248C91.4404 14.9667 90.6936 15.927 90.6936 15.927L87.8628 19.5485V19.5702C87.362 20.0849 87.336 20.8965 87.8029 21.4422V21.4483L90.652 25.0585L99.6254 13.6461L96.04 9.07554L95.3775 8.21336C94.7948 7.37722 93.4958 7.1836 93.4958 7.1836H88.1225C87.2812 7.18175 86.4795 7.54053 85.9204 8.16908L70.8711 27.4758L73.2017 30.4339Z" fill="white"/>
<path d="M72.5653 20.5332L68.9652 15.9218C68.2323 14.7419 69.3012 13.8979 69.3012 13.8979C70.6454 13.1165 71.4252 14.3233 71.4252 14.3233L74.4036 18.148L77.9291 13.6062L73.8653 8.37749C73.3222 7.56828 72.388 7.11099 71.4157 7.17842H66.5642C65.0108 7.17842 64.343 8.1448 64.343 8.1448L60.0508 13.5923L69.0242 25.0533L72.5653 20.5332Z" fill="white"/>
<path d="M86.4393 24.4687C86.4393 24.4687 86.0251 23.827 85.228 23.84C84.397 23.8522 84.0609 24.4044 84.0609 24.4044L71.2702 40.8293C70.2352 41.9685 69.1193 41.0525 69.1193 41.0525C68.1181 40.0062 68.9396 39.0364 68.9396 39.0364L71.8051 35.3523V35.3332C72.3052 34.8184 72.3308 34.0074 71.8642 33.4621V33.4552L69.0151 29.8458L60.0156 41.3867L65.0355 47.7398L72.9235 47.7607L88.7934 27.4702L86.4393 24.4687Z" fill="white"/>
<path d="M87.1016 34.3654L90.7313 39.0358C91.5675 40.1958 90.5125 41.0519 90.5125 41.0519C89.1231 41.9879 88.2661 40.59 88.2661 40.59L85.2269 36.7315L81.7031 41.2751L86.7881 47.7818L94.6163 47.7627L99.6353 41.3289L90.6419 29.8418L87.1016 34.3654Z" fill="white"/>
<path fill-rule="evenodd" clip-rule="evenodd" d="M95.9277 27.4933C95.9277 25.5128 97.5602 23.9004 99.567 23.9004H99.5661C101.574 23.9004 103.207 25.5128 103.207 27.4933C103.207 29.4738 101.574 31.0861 99.567 31.0861C97.5602 31.0861 95.9277 29.4738 95.9277 27.4933ZM97.7692 28.2447C98.0737 28.966 98.7835 29.4322 99.5665 29.4252C100.628 29.4194 101.485 28.555 101.481 27.4933C101.481 26.7103 101.009 26.0048 100.284 25.7068C99.5603 25.4089 98.728 25.5774 98.1768 26.1335C97.6256 26.6896 97.4646 27.5234 97.7692 28.2447Z" fill="white"/>
<path fill-rule="evenodd" clip-rule="evenodd" d="M83.454 3.59287C83.454 5.57337 81.8207 7.18574 79.8131 7.18574C77.8063 7.18574 76.1738 5.57337 76.1738 3.59287C76.1738 1.61236 77.8054 0 79.8131 0C81.8207 0 83.454 1.61236 83.454 3.59287ZM81.6137 2.83869C81.3078 2.11754 80.5967 1.65247 79.8133 1.66127C78.7532 1.6694 77.8991 2.53308 77.903 3.59316C77.903 4.3765 78.3761 5.08226 79.1008 5.37997C79.8254 5.67767 80.6581 5.50837 81.2089 4.95134C81.7597 4.39432 81.9196 3.55985 81.6137 2.83869Z" fill="white"/>
<path fill-rule="evenodd" clip-rule="evenodd" d="M60.0082 23.8857C62.0149 23.8857 63.6482 25.4981 63.6482 27.4786C63.6482 29.46 62.0158 31.0715 60.0082 31.0715C58.0005 31.0715 56.3672 29.4591 56.3672 27.4786C56.3672 25.4981 58.0014 23.8857 60.0082 23.8857ZM60.0161 25.5822C58.961 25.576 58.0997 26.4244 58.0902 27.4794C58.0868 28.5413 58.9437 29.4055 60.0057 29.4112C61.0608 29.4107 61.9166 28.5569 61.9195 27.5019C61.9223 26.4469 61.0711 25.5884 60.0161 25.5822Z" fill="white"/>
<path fill-rule="evenodd" clip-rule="evenodd" d="M0 3.57129H41.8203V31.4564C41.8203 46.7621 20.9201 51.3743 20.9201 51.3743H20.9002C20.9002 51.3743 0 46.7621 0 31.4564V3.57129ZM40.8028 31.4559V4.58841H1.01795V31.4559C1.01795 34.7197 2.04607 37.7326 4.08146 40.412C5.73392 42.5922 8.05153 44.5658 10.97 46.278C15.4186 48.8889 19.9053 50.0827 20.9134 50.3319C21.9251 50.0801 26.4474 48.8732 30.8994 46.2511C33.8057 44.5389 36.1138 42.5671 37.7593 40.3895C39.7791 37.7178 40.8028 34.711 40.8028 31.4559Z" fill="white"/>
<path d="M25.9758 12.4969V9.93555H23.3412V12.3267H22.3122V9.93555H19.5987V12.3267H18.5697V9.93555H15.8926V12.4987L17.1951 14.744C17.2404 14.8233 17.2641 14.9131 17.2637 15.0045L17.275 26.726H18.5445L18.5306 22.5149C18.5306 21.5208 19.6595 20.6169 20.9021 20.6169C22.1447 20.6169 23.2735 21.5208 23.2735 22.5132L23.2865 26.726H24.589L24.5847 22.2796C24.5847 22.2597 24.5847 22.2379 24.5847 22.218V20.0161C24.5847 20.0039 24.5847 19.9926 24.5847 19.9822V18.3768C24.5843 18.3742 24.5843 18.3716 24.5847 18.369V17.6674V15.0036C24.5846 14.9119 24.6092 14.822 24.6559 14.7431L25.9758 12.4969Z" fill="white"/>
<path d="M16.2508 27.0021V23.1167L15.7828 23.3971C15.611 23.5009 15.3944 23.4948 15.2288 23.3815L14.6635 22.9951C14.6648 23.0116 14.6648 23.0281 14.6635 23.0446L14.6435 24.5415C14.642 24.697 14.5697 24.8433 14.4473 24.9392C14.5062 24.9587 14.5614 24.988 14.6105 25.026C15.2948 25.5756 15.3451 26.3622 15.1984 27.0013L16.2508 27.0021Z" fill="white"/>
<path d="M20.9039 21.6533C20.1145 21.6533 19.5605 22.2151 19.5605 22.5216L19.5736 26.7361H22.2585L22.2463 22.5216C22.2463 22.216 21.6932 21.6533 20.9039 21.6533Z" fill="white"/>
<path d="M5.22675 27.0017C5.06547 26.6239 4.95453 26.2266 4.89678 25.82C4.81658 25.294 4.78259 24.7621 4.79518 24.2302C4.80369 24.012 4.94874 23.8228 5.15728 23.7579L6.28613 23.4106L5.01227 22.5128C4.87628 22.4164 4.79539 22.2601 4.79518 22.0934V20.6686C4.79491 20.477 4.90139 20.3012 5.07131 20.2127L5.56801 19.9523V19.4678L5.1156 19.2854C4.92259 19.2054 4.79611 19.0177 4.79431 18.8088V17.0957C4.7943 16.8133 5.02168 16.5837 5.30403 16.5808L6.89136 16.566C6.86271 16.1458 6.85489 15.5719 6.95649 15.0961C7.09455 14.4536 7.46013 13.7563 7.63466 13.4464L7.54783 12.8516C7.52648 12.7044 7.57022 12.5551 7.66766 12.4427C7.76666 12.332 7.90818 12.2688 8.05668 12.269H8.91286C9.01032 12.2691 9.10576 12.2968 9.18813 12.3489L11.28 13.6747H12.2412C12.3815 13.6748 12.5156 13.7322 12.6127 13.8334C12.7097 13.9347 12.7612 14.0712 12.7553 14.2113L12.6832 15.861C12.6763 15.9973 12.6161 16.1255 12.5156 16.2179H13.1547C13.2942 16.2189 13.4275 16.2758 13.5246 16.3759L13.8155 16.6781L14.037 16.5096L14.4086 15.7282C14.4937 15.5487 14.6745 15.4341 14.8732 15.4338H16.2382V15.1404L14.9357 12.895C14.8892 12.8162 14.8648 12.7261 14.8654 12.6346V9.42199C14.8654 9.28551 14.9196 9.15464 15.0162 9.05822C15.1128 8.9618 15.2438 8.90774 15.3803 8.90797H26.4951C26.779 8.90797 27.0091 9.13811 27.0091 9.42199V12.6346C27.0094 12.7262 26.9848 12.8163 26.9379 12.895L25.605 15.1404V15.4295H26.9588C27.1575 15.4296 27.3384 15.5442 27.4233 15.7238L27.795 16.5053L28.0156 16.6737L28.3082 16.3716C28.4044 16.2712 28.5373 16.2141 28.6764 16.2135H29.3163C29.2162 16.121 29.1563 15.9929 29.1496 15.8567L29.0767 14.207C29.0708 14.0669 29.1223 13.9304 29.2193 13.8291C29.3163 13.7278 29.4505 13.6705 29.5907 13.6704H30.5529L32.6447 12.3446C32.7267 12.2925 32.8219 12.2648 32.9191 12.2647H33.7753C33.9242 12.2647 34.0657 12.3293 34.1633 12.4417C34.2609 12.5541 34.305 12.7033 34.2841 12.8508L34.1973 13.4455C34.371 13.7563 34.7374 14.4536 34.8746 15.0952C34.9779 15.571 34.9684 16.1449 34.9406 16.5652L36.5279 16.5799C36.8104 16.5828 37.038 16.8123 37.0385 17.0948V18.8079C37.0387 19.0172 36.912 19.2057 36.7181 19.2846L36.2666 19.4669V19.9514L36.7615 20.2119C36.9316 20.3003 37.0384 20.476 37.0385 20.6677V22.0925C37.0386 22.2591 36.9581 22.4154 36.8223 22.5119L35.5519 23.4106L36.6764 23.7579C36.8848 23.8228 37.0295 24.0121 37.0376 24.2302C37.0513 24.7621 37.0176 25.2941 36.9369 25.82C36.8786 26.2267 36.7671 26.624 36.6052 27.0017H38.4756H38.4999V7.12891H3.36328V27.0017H5.22675Z" fill="white"/>
<path d="M27.2284 25.0263C27.2769 24.9874 27.3323 24.9579 27.3916 24.9395C27.269 24.8436 27.1963 24.6975 27.1937 24.5418L27.1746 23.0406C27.1737 23.0238 27.1737 23.007 27.1746 22.9902L26.6101 23.3766C26.4442 23.4905 26.2271 23.4973 26.0544 23.394L25.6133 23.1274V26.9981H26.6362C26.4894 26.3574 26.5398 25.5716 27.2249 25.0228" fill="white"/>
<path d="M34.0592 37.6295C33.9227 37.6295 33.7918 37.5753 33.6954 37.4787C33.599 37.3821 33.5449 37.2511 33.5451 37.1147V33.7545C33.5451 33.5044 33.3941 33.1945 33.1613 32.9652C32.8816 32.687 32.4988 32.5376 32.1046 32.5528C31.3161 32.5658 30.8429 33.1771 30.7769 33.7797V37.1147C30.7763 37.2509 30.7224 37.3815 30.6266 37.4785C30.5304 37.5754 30.3994 37.6298 30.2628 37.6295H27.2054C27.069 37.6295 26.9382 37.5752 26.8419 37.4786C26.7456 37.382 26.6917 37.2511 26.6922 37.1147V33.7545C26.6922 33.5044 26.5402 33.1945 26.3075 32.9652C26.0278 32.6875 25.6455 32.5382 25.2516 32.5528C24.9213 32.5559 24.6043 32.683 24.3633 32.9088L26.8763 45.7252C30.413 44.1571 34.6045 41.601 36.8622 37.6313L34.0592 37.6295Z" fill="white"/>
<path d="M25.885 46.0442L22.3526 28.0312H19.4871L15.9564 46.0512C15.9513 46.0757 15.9443 46.0998 15.9355 46.1232C18.3877 47.1295 20.3789 47.6409 20.9337 47.8155C21.4973 47.6418 23.4754 47.1304 25.9102 46.1336C25.8996 46.1054 25.8912 46.0764 25.885 46.0468" fill="white"/>
<path d="M17.4839 32.891C17.243 32.6771 16.9326 32.558 16.6104 32.5559H16.5826C16.1984 32.5496 15.8279 32.6983 15.5545 32.9683C15.3218 33.1975 15.1707 33.5066 15.1707 33.7567V37.1186C15.1707 37.2548 15.1165 37.3855 15.0201 37.4817C14.9236 37.578 14.7929 37.6319 14.6566 37.6317H11.5966C11.3127 37.6312 11.0826 37.4015 11.0817 37.1177V33.7818C11.0165 33.1784 10.5433 32.5663 9.75483 32.5559H9.72617C9.34197 32.5496 8.97143 32.6983 8.69805 32.9683C8.46534 33.1975 8.31424 33.5066 8.31424 33.7567V37.1186C8.31424 37.2548 8.26006 37.3855 8.16363 37.4817C8.0672 37.578 7.93644 37.6319 7.80019 37.6317H5.01367C7.27136 41.5884 11.4446 44.1437 14.9736 45.7118L17.4839 32.891Z" fill="white"/>
<path d="M38.4792 28.0309H23.4004L24.1411 31.8079C24.4767 31.6284 24.8503 31.5316 25.2309 31.5257C25.8998 31.5102 26.5467 31.7653 27.0249 32.2333C27.459 32.6588 27.7195 33.2275 27.7195 33.7545V36.6015H29.7462V33.7545C29.7462 33.7389 29.7462 33.7241 29.7462 33.7076C29.8533 32.4871 30.8656 31.545 32.0908 31.5257C32.7603 31.5083 33.4081 31.7638 33.8856 32.2333C34.3198 32.6588 34.576 33.2275 34.576 33.7545V36.6015H37.3859C38.1339 34.9592 38.5164 33.174 38.507 31.3694V28.0283C38.4989 28.0288 38.4907 28.0288 38.4826 28.0283" fill="white"/>
<path d="M7.28945 36.6036V33.7566C7.28945 33.2295 7.54995 32.6608 7.98413 32.2345C8.46228 31.7687 9.10717 31.5138 9.77465 31.5269C10.9973 31.5502 12.0055 32.4916 12.1122 33.7097C12.1131 33.7253 12.1131 33.741 12.1122 33.7566V36.6036H14.1398V33.7566C14.1398 33.2295 14.4003 32.6608 14.8345 32.2345C15.3137 31.7676 15.9604 31.5126 16.6294 31.5269C17.0024 31.5328 17.3688 31.6262 17.6992 31.7995L18.4372 28.0312H3.36541V31.3697C3.3559 33.1752 3.73931 34.9611 4.48904 36.6036H7.28945Z" fill="white"/>
<path d="M8.49872 25.942H9.33319C9.39602 26.0484 9.43595 26.1667 9.45042 26.2893C9.45042 26.3588 9.45737 26.4283 9.46345 26.4986C9.4593 26.6691 9.436 26.8386 9.39398 27.0039H6.47461C6.05259 26.7156 5.84245 25.573 5.82422 24.6327L7.10242 24.2376C7.31716 24.1693 7.46361 23.9706 7.46539 23.7453V23.253C7.46577 23.0862 7.38474 22.9297 7.2483 22.8336L5.82509 21.8256V20.979L6.32091 20.7186C6.49098 20.6302 6.59751 20.4544 6.59704 20.2627V19.1227C6.59737 18.9131 6.47067 18.7243 6.27663 18.6452L5.82422 18.4628V17.6067L7.17276 17.5937L7.81359 18.6434V20.1082L7.37334 21.4974C7.32347 21.6539 7.3513 21.8249 7.44826 21.9575C7.54521 22.0901 7.69965 22.1686 7.86396 22.1686H8.25298C8.50551 22.1675 8.72013 21.9838 8.76009 21.7344C8.79743 21.5069 8.91986 20.8505 9.03448 20.5536C9.12132 20.3244 9.49037 19.8312 9.72134 19.5551C9.88361 19.3609 9.88104 19.0777 9.71527 18.8865L7.95079 16.8574C7.91606 16.5518 7.85267 15.8268 7.96295 15.3136C8.08278 14.7562 8.47006 14.0468 8.60813 13.8202C8.67079 13.7182 8.69568 13.5975 8.67846 13.479L8.65241 13.2949H8.76617L10.8571 14.619C10.9395 14.6711 11.0349 14.6988 11.1324 14.6989H11.7055L11.6716 15.4664L10.9978 15.7113C10.793 15.7855 10.657 15.9806 10.6583 16.1984V16.7263C10.6607 17.0083 10.8895 17.2359 11.1715 17.2368L12.9325 17.2429L13.3927 17.7187C13.5736 17.9079 13.8681 17.93 14.0752 17.7699C14.0752 17.7699 14.8758 17.1335 14.9114 17.0588L15.1971 16.458H16.2235V18.33C16.2235 18.33 14.3461 18.9742 14.1907 19.0506C14.0683 19.1114 14.0005 19.6923 14.0222 19.8321C14.044 19.9719 14.0361 20.0283 14.2385 20.1794C14.2385 20.1794 14.7847 20.6135 14.9522 20.6691L15.4976 20.1481L16.2209 20.1967V21.9333L15.5262 22.3474L13.3684 20.8714C13.1444 20.7195 12.8412 20.7665 12.6737 20.979L12.3368 21.4132C12.1713 21.6233 12.1944 21.9251 12.3898 22.1078L13.6245 23.2634L13.6124 24.2046L12.3793 24.7473C12.1945 24.8312 12.0752 25.0149 12.0737 25.2179V25.428C12.0742 25.712 12.3046 25.942 12.5886 25.942H14.0787C14.3392 26.2624 14.235 26.7139 14.1265 27.0022H10.6922C10.5749 26.8797 10.5185 26.6636 10.4898 26.4213C10.4898 26.3562 10.4846 26.2893 10.4785 26.2233C10.4716 25.9354 10.4975 25.6476 10.5558 25.3655L11.3547 24.3436C11.4207 24.2599 11.4587 24.1575 11.4632 24.051L11.4867 23.5604C11.4951 23.3849 11.4132 23.2172 11.2697 23.1159C11.1261 23.0146 10.9407 22.9936 10.7781 23.0603L9.4895 23.5864C9.32103 23.655 9.20144 23.8076 9.17516 23.9876L9.09874 24.5024L8.35023 24.7282C8.13294 24.7936 7.9841 24.9936 7.98379 25.2205V25.4289C7.98427 25.7129 8.21467 25.9429 8.49872 25.9429" fill="white"/>
<path d="M33.3368 25.9429H32.5023C32.4399 26.0494 32.4 26.1676 32.3851 26.2902C32.3851 26.3597 32.379 26.4291 32.3729 26.4995C32.3766 26.67 32.3999 26.8396 32.4424 27.0048H35.3643C35.7855 26.7165 35.9956 25.5739 36.0139 24.6336L34.7357 24.2385C34.5209 24.1702 34.3745 23.9715 34.3727 23.7462V23.2539C34.3725 23.0869 34.4539 22.9303 34.5907 22.8345L36.0104 21.8265V20.9799L35.5154 20.7194C35.345 20.6313 35.2381 20.4554 35.2384 20.2636V19.1236C35.2385 18.9139 35.3655 18.7251 35.5597 18.646L36.0113 18.4637V17.6076L34.6636 17.5946L34.0228 18.6443L34.0184 20.109L34.4587 21.4983C34.5081 21.6548 34.4801 21.8255 34.3833 21.958C34.2864 22.0905 34.1322 22.169 33.968 22.1694H33.579C33.3262 22.1688 33.1111 21.9849 33.0711 21.7353C33.0337 21.5078 32.9121 20.8514 32.7967 20.5545C32.7098 20.3252 32.3416 19.8321 32.1107 19.556C31.9484 19.3618 31.951 19.0786 32.1167 18.8874L33.8856 16.8574C33.9203 16.5518 33.9828 15.8268 33.8734 15.3136C33.7536 14.7562 33.3663 14.0468 33.2282 13.8202C33.166 13.718 33.1409 13.5975 33.157 13.479L33.1831 13.2949H33.0693L30.9792 14.6199C30.8968 14.672 30.8014 14.6997 30.7039 14.6998H30.13L30.1638 15.4673L30.8385 15.7122C31.043 15.7867 31.1786 15.9816 31.1772 16.1993V16.7272C31.1753 17.009 30.9467 17.2368 30.6649 17.2377L28.9039 17.2438L28.4436 17.7196C28.2628 17.9088 27.9682 17.9309 27.7611 17.7708C27.7611 17.7708 26.9596 17.1344 26.9249 17.0597L26.6392 16.4589H25.6094V18.3308C25.6094 18.3308 27.4859 18.9751 27.6413 19.0515C27.7646 19.1123 27.8315 19.6931 27.8106 19.8329C27.7898 19.9727 27.7959 20.0292 27.5944 20.1802C27.5944 20.1802 27.0465 20.6144 26.8806 20.6699L26.3344 20.149L25.612 20.1976V21.9341L26.3014 22.3483L28.4601 20.8722C28.6838 20.719 28.9881 20.7662 29.1548 20.9799L29.4935 21.414C29.6587 21.6244 29.6353 21.9262 29.4396 22.1086L28.2057 23.2643L28.2179 24.2055L29.4561 24.7551C29.641 24.839 29.7603 25.0227 29.7618 25.2257V25.4358C29.7618 25.5723 29.7075 25.7032 29.6109 25.7996C29.5143 25.896 29.3834 25.9501 29.2469 25.9498H27.7585C27.498 26.2702 27.6022 26.7217 27.7099 27.01H31.1442C31.2606 26.8876 31.3179 26.6714 31.3448 26.4291C31.3448 26.364 31.3509 26.2971 31.3569 26.2312C31.3646 25.9432 31.3389 25.6554 31.2805 25.3733L30.4808 24.3444C30.4155 24.2603 30.3777 24.1582 30.3722 24.0518L30.354 23.563C30.3451 23.3873 30.4269 23.2193 30.5706 23.1179C30.7143 23.0164 30.9 22.9957 31.0626 23.0629L32.3512 23.5864C32.5194 23.6553 32.6389 23.8077 32.6655 23.9876L32.7419 24.5024L33.4905 24.7282C33.7076 24.7937 33.8561 24.9937 33.856 25.2205V25.4289C33.856 25.5654 33.8018 25.6962 33.7052 25.7927C33.6086 25.8891 33.4776 25.9431 33.3411 25.9429" fill="white"/>
<path d="M114.216 21.3836V21.3645C114.216 19.41 115.652 17.6787 117.789 17.6787C118.991 17.6787 119.734 18.026 120.447 18.626L119.926 19.2338C119.375 18.7562 118.765 18.4193 117.755 18.4193C116.176 18.4193 115.046 19.7521 115.046 21.341V21.3619C115.046 23.0619 116.135 24.3226 117.865 24.3226C118.611 24.3204 119.334 24.0699 119.922 23.6107V21.8394H117.751V21.1162H120.692V23.9571C119.902 24.6577 118.883 25.045 117.827 25.0459C115.587 25.0459 114.203 23.4179 114.203 21.381" fill="white"/>
<path fill-rule="evenodd" clip-rule="evenodd" d="M123.336 21.3645V21.3836C123.336 23.3485 124.79 25.0485 126.961 25.0485C129.132 25.0485 130.608 23.3294 130.608 21.3645V21.3436C130.608 19.3788 129.154 17.6787 126.983 17.6787C124.812 17.6787 123.336 19.3996 123.336 21.3645ZM129.771 21.364V21.3831C129.771 23.0033 128.609 24.3057 126.98 24.3057C125.351 24.3057 124.171 22.9824 124.171 21.364V21.3432C124.171 19.7239 125.333 18.4215 126.961 18.4215C128.589 18.4215 129.771 19.7447 129.771 21.364Z" fill="white"/>
<path fill-rule="evenodd" clip-rule="evenodd" d="M136.521 17.8008H133.488L133.489 24.9275H136.655C138.213 24.9275 139.24 24.2042 139.24 22.9834V22.9617C139.24 21.9849 138.559 21.497 137.714 21.2426C138.273 20.9969 138.842 20.5193 138.842 19.5929V19.572C138.85 19.1459 138.685 18.7349 138.385 18.432C137.978 18.0352 137.336 17.8008 136.521 17.8008ZM138.027 19.6831C138.027 18.9806 137.468 18.5222 136.45 18.5222H134.279V20.9759H136.387C137.354 20.9759 138.025 20.5374 138.025 19.703L138.027 19.6831ZM136.528 21.6897H134.278V24.2077H136.671C137.749 24.2077 138.421 23.7292 138.421 22.9357V22.9148C138.421 22.1412 137.77 21.6932 136.528 21.6932V21.6897Z" fill="white"/>
<rect x="142.111" y="17.8008" width="0.804086" height="7.12496" fill="white"/>
<path d="M146.172 17.8008H151.322V18.5336H146.975V20.9665H150.865V21.6993H146.975V24.1929H151.373V24.9266H146.172V17.8008Z" fill="white"/>
<path fill-rule="evenodd" clip-rule="evenodd" d="M157.105 17.8008H154.041V24.9266H154.844V22.1569H156.881L158.946 24.9266H159.934L157.746 22.0153C158.866 21.8113 159.68 21.1184 159.68 19.9384V19.9185C159.691 19.3955 159.493 18.8896 159.13 18.5128C158.682 18.0656 157.981 17.8008 157.105 17.8008ZM158.865 19.9692C158.865 20.8852 158.101 21.4348 157.033 21.4348H154.843V18.5444H157.042C158.193 18.5444 158.865 19.074 158.865 19.9492V19.9692Z" fill="white"/>
<path d="M162.578 17.8008H163.331L167.821 23.5122V17.8008H168.604V24.9266H167.964L163.361 19.0832V24.9266H162.578V17.8008Z" fill="white"/>
<path fill-rule="evenodd" clip-rule="evenodd" d="M171.484 21.3645V21.3836H171.482C171.482 23.3485 172.936 25.0485 175.107 25.0485C177.278 25.0485 178.754 23.3294 178.754 21.3645V21.3436C178.754 19.3788 177.302 17.6787 175.131 17.6787C172.96 17.6787 171.484 19.3996 171.484 21.3645ZM177.919 21.364V21.3831C177.919 23.0033 176.757 24.3057 175.128 24.3057C173.499 24.3057 172.32 22.9824 172.32 21.364V21.3432C172.32 19.7239 173.481 18.4215 175.109 18.4215C176.737 18.4215 177.919 19.7447 177.919 21.364Z" fill="white"/>
<path fill-rule="evenodd" clip-rule="evenodd" d="M187.812 17.8008H185.338V24.924H187.812C190.05 24.924 191.599 23.3681 191.599 21.3641V21.3433C191.599 19.3385 190.05 17.8008 187.812 17.8008ZM186.142 24.1829V18.5444H187.812C189.614 18.5444 190.764 19.786 190.764 21.3645V21.3836C190.764 22.9612 189.614 24.1829 187.812 24.1829H186.142Z" fill="white"/>
<path d="M194.154 17.8008H199.304V18.5336H194.958V20.9665H198.846V21.6993H194.958V24.1929H199.356V24.9266H194.154V17.8008Z" fill="white"/>
<path d="M205.762 17.8008H206.565V24.1825H210.578V24.9266H205.762V17.8008Z" fill="white"/>
<path fill-rule="evenodd" clip-rule="evenodd" d="M216.266 17.751H215.513L212.266 24.9263H213.091L213.935 23.043H217.813L218.646 24.928H219.515L216.266 17.751ZM215.879 18.689L217.498 22.3114H214.251L215.879 18.689Z" fill="white"/>
<path d="M114.062 33.6003V33.5803C114.062 31.5546 115.588 29.8945 117.777 29.8945C119.121 29.8945 119.925 30.3426 120.587 30.9938L119.589 32.1442C119.04 31.6458 118.48 31.3402 117.766 31.3402C116.563 31.3402 115.699 32.3387 115.699 33.5603V33.5803C115.699 34.8011 116.544 35.8187 117.766 35.8187C118.579 35.8187 119.08 35.494 119.638 34.9843L120.636 35.9923C119.903 36.7738 119.089 37.2643 117.715 37.2643C115.617 37.2643 114.061 35.6459 114.061 33.6003" fill="white"/>
<rect x="121.934" y="30.0186" width="1.56823" height="7.12496" fill="white"/>
<path d="M125.311 34.0907V30.0186H126.879V34.0508C126.879 35.2099 127.459 35.8107 128.416 35.8107C129.373 35.8107 129.953 35.2307 129.953 34.1011V30.0203H131.516V34.0421C131.516 36.1997 130.3 37.2546 128.39 37.2546C126.48 37.2546 125.307 36.1867 125.307 34.089" fill="white"/>
<path fill-rule="evenodd" clip-rule="evenodd" d="M136.083 30.0186H133.305V37.1418H136.083C138.323 37.1418 139.871 35.5867 139.871 33.5819V33.5619C139.871 31.5562 138.323 30.0186 136.083 30.0186ZM138.231 33.6015C138.231 34.8605 137.366 35.7288 136.083 35.7288H134.872V31.4335H136.083C137.363 31.4335 138.231 32.3191 138.231 33.5815V33.6015Z" fill="white"/>
<path fill-rule="evenodd" clip-rule="evenodd" d="M144.788 29.9658H143.342L140.285 37.142H141.891L142.543 35.5444H145.549L146.2 37.142H147.84L144.788 29.9658ZM144.043 31.8484L144.991 34.1588H143.097L144.043 31.8484Z" fill="white"/>
<path fill-rule="evenodd" clip-rule="evenodd" d="M151.757 30.0186H148.979V37.1418H151.757C153.997 37.1418 155.544 35.5867 155.544 33.5819V33.5619C155.544 31.5562 153.997 30.0186 151.757 30.0186ZM153.905 33.6015C153.905 34.8605 153.04 35.7288 151.757 35.7288H150.546V31.4335H151.757C153.037 31.4335 153.905 32.3191 153.905 33.5815V33.6015Z" fill="white"/>
<path fill-rule="evenodd" clip-rule="evenodd" d="M162.872 30.0186H160.094V37.1418H162.872C165.113 37.1418 166.659 35.5867 166.659 33.5819V33.5619C166.659 31.5562 165.113 30.0186 162.872 30.0186ZM165.021 33.6015C165.021 34.8605 164.155 35.7288 162.873 35.7288H161.662V31.4335H162.873C164.153 31.4335 165.021 32.3191 165.021 33.5815V33.6015Z" fill="white"/>
<path d="M168.148 30.0186H173.523V31.4139H169.705V32.8595H173.064V34.2539H169.705V35.75H173.574V37.1435H168.148V30.0186Z" fill="white"/>
<path d="M178.123 30.0186H179.812L181.686 33.0323L183.558 30.0186H185.248V37.1435H183.69V32.4914L181.686 35.5364H181.645L179.66 32.5226V37.1435H178.123V30.0186Z" fill="white"/>
<path fill-rule="evenodd" clip-rule="evenodd" d="M191.435 28.236L190.101 27.6543L188.951 29.4559H190.132L191.435 28.236ZM192.493 30.0169H187.119L187.123 37.1418H192.55V35.7483H188.681V34.2514H192.04V32.8578H188.677V31.4122H192.493V30.0169Z" fill="white"/>
<path d="M196.035 33.5203L193.652 30.0186H195.485L196.981 32.329L198.487 30.0186H200.27L197.888 33.5003L200.371 37.1444H198.539L196.941 34.7011L195.333 37.1444H193.551L196.035 33.5203Z" fill="white"/>
<rect x="201.574" y="30.0186" width="1.56823" height="7.12496" fill="white"/>
<path d="M204.658 33.6003V33.5803C204.658 31.5546 206.185 29.8945 208.375 29.8945C209.717 29.8945 210.523 30.3426 211.185 30.9938L210.188 32.1442C209.638 31.6458 209.078 31.3402 208.364 31.3402C207.163 31.3402 206.299 32.3387 206.299 33.5603V33.5803C206.299 34.8011 207.143 35.8187 208.364 35.8187C209.178 35.8187 209.678 35.494 210.236 34.9843L211.235 35.9923C210.501 36.7738 209.688 37.2643 208.314 37.2643C206.216 37.2643 204.658 35.6459 204.658 33.6003Z" fill="white"/>
<path fill-rule="evenodd" clip-rule="evenodd" d="M211.975 33.5803V33.6003C211.975 35.6259 213.552 37.2643 215.751 37.2643C217.95 37.2643 219.547 35.606 219.547 33.5803V33.5603C219.547 31.5338 217.97 29.8945 215.771 29.8945C213.572 29.8945 211.975 31.5546 211.975 33.5803ZM217.909 33.5807V33.6007C217.909 34.8223 217.033 35.8191 215.77 35.8191C214.508 35.8191 213.614 34.8015 213.614 33.5807V33.5607C213.614 32.3391 214.489 31.3406 215.751 31.3406C217.012 31.3406 217.909 32.3582 217.909 33.5807Z" fill="white"/>
<path fill-rule="evenodd" clip-rule="evenodd" d="M83.454 51.4073C83.454 53.3878 81.8207 55.0002 79.8131 55.0002C77.8063 55.0002 76.1738 53.3878 76.1738 51.4073C76.1738 49.4268 77.8054 47.8145 79.8131 47.8145C81.8207 47.8145 83.454 49.4268 83.454 51.4073ZM81.6137 50.6535C81.3078 49.9324 80.5967 49.4673 79.8133 49.4761C78.7532 49.4842 77.8991 50.3479 77.903 51.408C77.903 52.1913 78.3761 52.8971 79.1008 53.1948C79.8254 53.4925 80.6581 53.3232 81.2089 52.7662C81.7597 52.2092 81.9196 51.3747 81.6137 50.6535Z" fill="white"/>
</svg>
