<svg width="200" height="45" viewBox="0 0 200 45" fill="none" xmlns="http://www.w3.org/2000/svg">
<g clip-path="url(#clip0_13_486)">
<path d="M59.4063 24.5805C59.6223 24.9243 59.9679 25.0962 60.4432 25.0962C61.0481 25.1392 61.4801 24.4945 61.4801 24.4945L71.7197 11.3874C72.5837 10.5279 73.4046 11.2156 73.4046 11.2156C74.2255 12.075 73.6207 12.8056 73.6207 12.8056L71.3308 15.7279V15.7708C71.1148 15.9856 71.0283 16.2435 71.0283 16.5443C71.0283 16.8021 71.1148 17.06 71.2876 17.2749L73.5774 20.1971L80.8359 11.0007L77.9411 7.30488L77.4227 6.6173C76.9474 5.92971 75.9105 5.80078 75.9105 5.80078H71.5468C70.3803 5.80078 69.7755 6.6173 69.7755 6.6173L57.5484 22.2169L59.4063 24.5805Z" fill="#9F2241"/>
<path d="M58.8874 16.5884L55.9926 12.8496C55.3878 11.9041 56.2519 11.2166 56.2519 11.2166C57.332 10.572 57.9801 11.5604 57.9801 11.5604L60.3996 14.6545L63.2511 10.9587L59.9675 6.74728C59.1898 5.62995 57.9801 5.80185 57.9801 5.80185H54.0484C52.7955 5.80185 52.2338 6.57538 52.2338 6.57538L48.7343 10.9587L55.9926 20.2412L58.8874 16.5884Z" fill="#9F2241"/>
<path d="M70.1638 19.7671C70.1638 19.7671 69.8182 19.2514 69.1701 19.2514C68.4788 19.2514 68.2196 19.7241 68.2196 19.7241L57.8505 33.0032C57.0295 33.9056 56.0791 33.175 56.0791 33.175C55.2582 32.3155 55.9494 31.5421 55.9494 31.5421L58.2825 28.5768V28.5339C58.4985 28.319 58.585 28.0611 58.585 27.7603C58.585 27.5024 58.4985 27.2446 58.3257 27.0298L56.0359 24.1075L48.7343 33.4329L52.7955 38.5468L59.1898 38.5898L72.0648 22.2167L70.1638 19.7671Z" fill="#9F2241"/>
<path d="M70.6845 27.7179L73.6223 31.4997C74.3136 32.4451 73.4495 33.1327 73.4495 33.1327C72.3262 33.9062 71.6349 32.7459 71.6349 32.7459L69.1723 29.6088L66.3208 33.3046L70.4684 38.5474L76.8195 38.5044L80.8808 33.3046L73.5791 24.0651L70.6845 27.7179Z" fill="#9F2241"/>
<path d="M80.7947 23.7647C79.9306 23.7647 79.2393 23.0771 79.2393 22.2176C79.2393 21.3581 79.9306 20.6706 80.7947 20.6706C81.6588 20.6706 82.35 21.3581 82.35 22.2176C82.35 23.0771 81.6588 23.7647 80.7947 23.7647ZM80.7947 19.2954C79.1529 19.2954 77.8567 20.5846 77.8567 22.1746C77.8567 23.7647 79.1529 25.0539 80.7947 25.0539C82.4365 25.0539 83.7326 23.7647 83.7326 22.1746C83.7326 20.5846 82.4365 19.2954 80.7947 19.2954Z" fill="#9F2241"/>
<path d="M64.7648 1.3322C65.6289 1.3322 66.3202 2.01979 66.3202 2.87927C66.3202 3.73876 65.6289 4.42634 64.7648 4.42634C63.9007 4.42634 63.2094 3.73876 63.2094 2.87927C63.2094 2.01979 63.9439 1.3322 64.7648 1.3322ZM64.7648 5.80151C66.4066 5.80151 67.7028 4.51229 67.7028 2.92225C67.7028 1.3322 66.4066 0 64.7648 0C63.123 0 61.8269 1.28922 61.8269 2.87927C61.8269 4.46931 63.123 5.80151 64.7648 5.80151Z" fill="#9F2241"/>
<path d="M47.1364 22.1746C47.1364 21.3151 47.8276 20.6276 48.6918 20.6276C49.5558 20.6276 50.2471 21.3151 50.2471 22.1746C50.2471 23.0341 49.5558 23.7218 48.6918 23.7218C47.8276 23.7218 47.1364 23.0341 47.1364 22.1746ZM51.6729 22.1746C51.6729 20.5846 50.3767 19.2954 48.7349 19.2954C47.0931 19.2954 45.797 20.5846 45.797 22.1746C45.797 23.7647 47.0931 25.0539 48.7349 25.0539C50.3336 25.0968 51.6729 23.7647 51.6729 22.1746Z" fill="#9F2241"/>
<path d="M64.7648 43.0601C63.9007 43.0601 63.2094 42.3724 63.2094 41.513C63.2094 40.6535 63.9007 39.9659 64.7648 39.9659C65.6289 39.9659 66.3202 40.6535 66.3202 41.513C66.3202 42.3295 65.6289 43.0601 64.7648 43.0601ZM64.7648 38.5908C63.123 38.5908 61.8269 39.88 61.8269 41.47C61.8269 43.0601 63.123 44.3493 64.7648 44.3493C66.4066 44.3493 67.7028 43.0601 67.7028 41.47C67.7028 39.88 66.4066 38.5908 64.7648 38.5908Z" fill="#9F2241"/>
<path d="M33.959 2.8801H0V25.3986C0 37.7752 16.9363 41.471 16.9363 41.471H16.9795C16.9795 41.471 33.9158 37.7321 33.9158 25.3986L33.959 2.8801ZM33.0949 3.69661V25.3986C33.0949 28.02 32.274 30.4695 30.6322 32.6182C29.2929 34.3802 27.435 35.9702 25.0588 37.3454C21.4728 39.4511 17.8004 40.4396 16.9363 40.6115C16.1154 40.3966 12.4862 39.4511 8.857 37.3454C6.48072 35.9702 4.62292 34.3802 3.28357 32.6182C1.64179 30.4695 0.820892 28.02 0.820892 25.3986V3.69661H33.0949Z" fill="#BC955C"/>
<path d="M21.0835 10.098V8.03523H18.9665V9.96906H18.1456V8.03523H15.9421V9.96906H15.1213V8.03523H12.961V10.098L14.0411 11.9029C14.0844 11.9889 14.0844 12.0318 14.0844 12.1178V21.5721H15.1213V18.1771C15.1213 17.3607 16.0286 16.6301 17.0223 16.6301C18.0592 16.6301 18.9233 17.3607 18.9233 18.1771V21.5721H20.0034V18.0053C20.0034 17.9623 20.0034 17.9623 20.0034 17.9623V16.2003V16.1573V14.8681V14.3095V12.1607C20.0034 12.0748 20.0466 12.0318 20.0898 11.9459L21.0835 10.098Z" fill="#BC955C"/>
<path d="M13.1777 21.7883V18.6511L12.832 18.909C12.7024 18.9949 12.5296 18.9949 12.4 18.866L11.9247 18.5652C11.9247 18.6082 11.9247 18.6082 11.9247 18.6082L11.8815 19.8114C11.8815 19.9404 11.7951 20.0693 11.7087 20.1123C11.7519 20.1552 11.7951 20.1552 11.8383 20.1983C12.4 20.628 12.4432 21.2725 12.3136 21.7883H13.1777Z" fill="#BC955C"/>
<path d="M16.9365 17.4902C16.2884 17.4902 15.8564 17.963 15.8564 18.1778V21.5727H18.0166V18.1778C18.0598 17.92 17.5846 17.4902 16.9365 17.4902Z" fill="#BC955C"/>
<path d="M4.23274 21.7879C4.10313 21.5301 4.01672 21.2293 3.97351 20.8424C3.8439 20.1549 3.8871 19.5962 3.8871 19.5533C3.8871 19.3813 4.01672 19.2524 4.18954 19.1665L5.09684 18.9087L4.05993 18.1781C3.9303 18.0922 3.8871 17.9632 3.8871 17.8343V16.674C3.8871 16.5021 3.97351 16.3732 4.10313 16.2872L4.49197 16.0724V15.6855L4.18954 15.5567C4.01672 15.5137 3.8871 15.3847 3.8871 15.1698V13.7947C3.8871 13.5798 4.05993 13.365 4.31915 13.365L5.6153 13.322C5.57209 12.9782 5.57209 12.5055 5.6585 12.1187C5.78812 11.603 6.09054 11.0444 6.22017 10.7865L6.13375 10.3138C6.09054 10.1849 6.17696 10.099 6.22017 10.0129C6.30657 9.927 6.39298 9.88408 6.5226 9.88408H7.21387C7.30029 9.88408 7.38669 9.927 7.4299 9.97001L9.11485 11.0444H9.93579C10.0654 11.0444 10.1518 11.0873 10.2382 11.1732C10.3246 11.2593 10.3678 11.3452 10.3678 11.4741L10.2815 12.8063C10.2815 12.9353 10.2382 13.0212 10.1518 13.1071H10.6703C10.7999 13.1071 10.8863 13.1501 10.9727 13.2361L11.1888 13.4939L11.3615 13.365L11.6639 12.7633C11.7504 12.6344 11.88 12.5484 12.0528 12.5484H13.1761V12.3335L12.096 10.4857C12.0528 10.3998 12.0528 10.3568 12.0528 10.2708V7.60642C12.0528 7.39155 12.2257 7.17668 12.4849 7.17668H15.0772H15.898H18.1015H18.9656H21.5147C21.7307 7.17668 21.9467 7.34857 21.9467 7.60642V10.1849C21.9467 10.2708 21.9035 10.3138 21.8603 10.3998L20.7802 12.2047V12.4625H21.9035C22.0763 12.4625 22.2059 12.5484 22.2924 12.6774L22.5948 13.279L22.7676 13.4079L22.9836 13.1501C23.07 13.0641 23.1565 13.0212 23.2861 13.0212H23.8045C23.7181 12.9352 23.6749 12.8492 23.6749 12.7204L23.5885 11.3881C23.5885 11.2593 23.6317 11.1732 23.7181 11.0873C23.8045 11.0014 23.8909 10.9584 24.0205 10.9584H24.7982L26.4833 9.88408C26.5696 9.84107 26.6129 9.79806 26.6992 9.79806H27.3906C27.5202 9.79806 27.6065 9.84107 27.693 9.927C27.7794 10.0129 27.8226 10.1419 27.7794 10.2278L27.693 10.7006C27.8226 10.9584 28.125 11.5171 28.2546 12.0327C28.341 12.4196 28.341 12.8922 28.2978 13.2361L29.594 13.279C29.81 13.279 30.026 13.4509 30.026 13.7087V15.0839C30.026 15.2559 29.9396 15.3847 29.7668 15.4707L29.3779 15.5996V15.9864L29.7668 16.2013C29.8964 16.2872 29.9828 16.4161 29.9828 16.588V17.7483C29.9828 17.8773 29.8964 18.0061 29.81 18.0922L28.773 18.8227L29.6803 19.0805C29.8532 19.1235 29.9396 19.2954 29.9828 19.4673C29.9828 19.5103 30.026 20.069 29.8964 20.7565C29.81 21.1432 29.7668 21.4441 29.6372 21.7019H31.1494H31.1925V5.75853H2.67737V21.7879H4.23274Z" fill="#BC955C"/>
<path d="M22.0789 20.1983C22.1221 20.1552 22.1653 20.1552 22.2085 20.1123C22.1221 20.0263 22.0357 19.9404 22.0357 19.8114V18.6082C22.0357 18.5652 22.0357 18.5652 22.0357 18.5652L21.6037 18.909C21.4741 18.9949 21.3012 18.9949 21.1284 18.952L20.7827 18.7371V21.8742H21.6037C21.5173 21.2725 21.5173 20.6709 22.0789 20.1983Z" fill="#BC955C"/>
<path d="M27.6506 30.382C27.4346 30.382 27.2186 30.2101 27.2186 29.9523V27.2449C27.2186 27.03 27.089 26.7722 26.9161 26.6003C26.7433 26.4284 26.4841 26.2565 26.0521 26.2995C25.404 26.2995 25.0152 26.8151 24.9719 27.2879V29.9953C24.9719 30.1242 24.9287 30.2101 24.8423 30.2961C24.756 30.382 24.6695 30.425 24.5399 30.425H22.0772C21.8612 30.425 21.6451 30.2532 21.6451 29.9953V27.2879C21.6451 27.073 21.5155 26.8151 21.3427 26.6433C21.17 26.4714 20.9107 26.2995 20.4786 26.3425C20.2194 26.3425 19.9602 26.4714 19.7442 26.6003L21.7748 36.9571C24.6263 35.7109 28.0395 33.6051 29.8973 30.425L27.6506 30.382Z" fill="#BC955C"/>
<path d="M20.9985 37.174L18.147 22.6488H15.8571L12.9623 37.174C12.9623 37.217 12.9623 37.217 12.9191 37.26C14.9065 38.0765 16.5052 38.4632 16.9803 38.6351C17.4556 38.5062 19.0543 38.0765 21.0416 37.26C21.0416 37.217 21.0416 37.217 20.9985 37.174Z" fill="#BC955C"/>
<path d="M14.1717 26.5574C13.9988 26.3855 13.7396 26.2996 13.4372 26.2996H13.394C12.9619 26.2996 12.7027 26.4715 12.573 26.6434C12.4003 26.8152 12.2706 27.0731 12.2706 27.288V29.9954C12.2706 30.2102 12.0978 30.4251 11.8385 30.4251H9.37588C9.24627 30.4251 9.15991 30.3821 9.07348 30.2962C8.98704 30.2102 8.94386 30.1243 8.94386 29.9954V27.288C8.90069 26.8152 8.51181 26.2996 7.86374 26.2996H7.82053C7.38848 26.2996 7.12925 26.4715 6.99964 26.6434C6.82683 26.8152 6.6972 27.0731 6.6972 27.288V29.9954C6.6972 30.2102 6.52439 30.4251 6.26516 30.4251H4.10492C5.91952 33.6052 9.28953 35.668 12.1842 36.9572L14.1717 26.5574Z" fill="#BC955C"/>
<path d="M31.2385 22.6488H19.0115L19.6164 25.6999C19.8756 25.571 20.178 25.4851 20.4805 25.4851C21.0421 25.4851 21.5606 25.6569 21.9494 26.0437C22.2951 26.3875 22.5112 26.8602 22.5112 27.247V29.5246H24.1529V27.247C24.1529 27.204 24.1529 27.204 24.1529 27.204C24.2393 26.2156 25.0602 25.442 26.0539 25.442C26.6156 25.442 27.1341 25.6139 27.5229 26.0007C27.8685 26.3446 28.0846 26.8172 28.0846 27.204V29.4817H30.3744C30.9361 28.2353 31.2817 26.8602 31.2817 25.2702L31.2385 22.6488Z" fill="#BC955C"/>
<path d="M5.91896 29.5661V27.2885C5.91896 26.8588 6.13499 26.429 6.48062 26.0852C6.86947 25.6985 7.38792 25.5266 7.94959 25.5266C8.94326 25.5695 9.7642 26.3001 9.85056 27.2885C9.85056 27.3314 9.85056 27.3314 9.85056 27.3314V29.6091H11.4924V27.3314C11.4924 26.9018 11.7084 26.472 12.0541 26.1282C12.4429 25.7415 12.9614 25.5695 13.523 25.5695C13.8254 25.5695 14.1279 25.6554 14.3871 25.7844L14.992 22.7332H2.7218V25.3546C2.7218 26.9447 3.06744 28.3629 3.6291 29.5661H5.91896Z" fill="#BC955C"/>
<path d="M6.91404 20.9281H7.60531C7.64852 21.014 7.69172 21.1 7.69172 21.1859C7.69172 21.2289 7.69172 21.3149 7.69172 21.3578C7.69172 21.4867 7.64852 21.6587 7.64852 21.7875H5.27226C4.92662 21.5727 4.7538 20.6272 4.7538 19.8967L5.79071 19.5959C5.96353 19.5529 6.09315 19.381 6.09315 19.2091V18.8224C6.09315 18.6934 6.00674 18.5645 5.92032 18.4786L4.71059 17.6191V16.9315L5.09944 16.7166C5.22905 16.6306 5.31546 16.5018 5.31546 16.3298V15.4274C5.31546 15.2555 5.22905 15.1266 5.05623 15.0406L4.66739 14.9117V14.2241H5.74751L6.26596 15.0836V16.2439L5.92032 17.3613C5.87712 17.4901 5.87712 17.6191 6.00674 17.748C6.09315 17.8769 6.22276 17.9199 6.35238 17.9199H6.65481C6.87083 17.9199 7.04365 17.7909 7.08686 17.576C7.13006 17.4042 7.21647 16.8455 7.30288 16.6306C7.38929 16.4587 7.69172 16.072 7.86455 15.8141C7.99416 15.6423 7.99416 15.4274 7.86455 15.2984L6.48199 13.6655C6.43879 13.4076 6.39558 12.8489 6.48199 12.4192C6.5684 11.9465 6.91404 11.3878 7.00044 11.2159C7.04366 11.13 7.08686 11.044 7.04365 10.958L7.00044 10.8292H7.08686L8.77185 11.9035C8.85829 11.9465 8.90147 11.9895 8.9879 11.9895H9.50636L9.4631 12.4621L8.90147 12.677C8.77185 12.763 8.64224 12.8919 8.64224 13.0638V13.4935C8.64224 13.7084 8.81503 13.9233 9.07426 13.9233H10.5L10.8888 14.3101C11.0185 14.482 11.2777 14.482 11.4506 14.353C11.4506 14.353 12.0986 13.8373 12.1418 13.7943L12.3579 13.3216H13.222V14.2671V14.7828C13.222 14.7828 11.7098 15.2984 11.5802 15.3415C11.4937 15.3844 11.4073 15.8571 11.4506 15.9431C11.4937 16.072 11.4506 16.1149 11.6234 16.201C11.6234 16.201 12.0554 16.5447 12.185 16.5877L12.6171 16.1579L13.1787 16.2439V17.6621L12.6171 18.0488L10.8457 16.8455C10.6729 16.7166 10.4137 16.7596 10.284 16.9315L10.0248 17.2752C9.8952 17.4472 9.8952 17.705 10.068 17.8339L11.0617 18.7794V19.5529L10.0248 19.9827C9.85194 20.0686 9.76559 20.1976 9.76559 20.3694V20.5413C9.76559 20.7562 9.93838 20.971 10.1976 20.971H11.4073C11.6234 21.2289 11.5369 21.5727 11.4506 21.8305H8.68541C8.59906 21.7446 8.55582 21.5727 8.51262 21.3578C8.51262 21.3149 8.51262 21.2289 8.51262 21.1859C8.51262 20.9281 8.55582 20.6702 8.59906 20.4984L9.24713 19.6818C9.29031 19.5959 9.33348 19.5099 9.33348 19.4669L9.37674 19.0802C9.37674 18.9512 9.29031 18.8224 9.20387 18.6934C9.11752 18.5645 8.94464 18.6075 8.81503 18.6504L7.77814 19.0802C7.64852 19.1232 7.56211 19.2521 7.51891 19.381L7.4325 19.8107L6.82763 19.9827C6.65481 20.0256 6.52519 20.1976 6.52519 20.3694V20.5413C6.48199 20.7562 6.69802 20.9281 6.91404 20.9281Z" fill="#BC955C"/>
<path d="M27.0475 20.9273H26.3561C26.313 21.0133 26.2698 21.0993 26.2698 21.1852C26.2698 21.2281 26.2698 21.3142 26.2698 21.3571C26.2698 21.486 26.313 21.6579 26.313 21.7868H28.6893C29.0348 21.572 29.2077 20.6265 29.2077 19.896L28.1708 19.5952C27.9979 19.5522 27.8683 19.3803 27.8683 19.2084V18.8216C27.8683 18.6927 27.9548 18.5638 28.0412 18.4779L29.2077 17.6613V16.9737L28.8189 16.7589C28.6893 16.6729 28.6028 16.544 28.6028 16.3721V15.4696C28.6028 15.2978 28.6893 15.1688 28.8621 15.0829L29.2509 14.9539V14.2664H28.1708L27.6524 15.1258V16.2861L27.9979 17.4035C28.0412 17.5324 28.0412 17.6613 27.9116 17.7902C27.8251 17.9192 27.6955 17.9621 27.5659 17.9621H27.2635C27.0475 17.9621 26.8747 17.8332 26.8314 17.6184C26.7882 17.4464 26.7018 16.8878 26.6154 16.6729C26.529 16.501 26.2265 16.1142 26.0537 15.8564C25.9241 15.6845 25.9241 15.4696 26.0537 15.3407L27.4795 13.7077C27.5227 13.4498 27.5659 12.8912 27.4795 12.4615C27.3931 11.9887 27.0475 11.4301 26.961 11.2581C26.9179 11.1722 26.8747 11.0863 26.9179 11.0003L26.961 10.8714H26.8747L25.1896 11.9458C25.1033 11.9887 25.06 12.0317 24.9736 12.0317H24.4984L24.5415 12.6333L25.1033 12.8482C25.276 12.9341 25.3625 13.0631 25.3625 13.2349V13.6647C25.3625 13.8796 25.1896 14.0944 24.9304 14.0944H23.5046L23.1158 14.4813C22.9862 14.6531 22.727 14.6531 22.5542 14.5242C22.5542 14.5242 21.9061 14.0085 21.8629 13.9656L21.6469 13.4928H20.7827V14.4383V14.9539C20.7827 14.9539 22.2949 15.4696 22.4245 15.5126C22.511 15.5556 22.5973 16.0283 22.5542 16.1142C22.511 16.2432 22.5542 16.2861 22.3814 16.3721C22.3814 16.3721 21.9493 16.7159 21.8197 16.7589L21.3876 16.3291H20.7827V17.7473L21.3445 18.091L23.1158 16.8878C23.2887 16.7589 23.5479 16.8019 23.6775 16.9737L23.9367 17.3176C24.0663 17.4894 24.0663 17.7473 23.8935 17.8762L22.8998 18.7787V19.5522L23.9367 19.9819C24.1095 20.0678 24.196 20.1968 24.196 20.3687V20.5406C24.196 20.7555 24.0231 20.9704 23.7639 20.9704H22.5542C22.3381 21.2281 22.4245 21.572 22.511 21.8299H25.3192C25.4057 21.7438 25.4488 21.572 25.4921 21.3571C25.4921 21.3142 25.4921 21.2281 25.4921 21.1852C25.4921 20.9273 25.4488 20.6695 25.4057 20.4976L24.7576 19.6811C24.7144 19.5952 24.6712 19.5092 24.6712 19.4662L24.628 19.0365C24.628 18.9075 24.7144 18.7787 24.8008 18.6497C24.9304 18.5638 25.06 18.5638 25.1896 18.6067L26.2265 19.0365C26.3561 19.0795 26.4426 19.2084 26.4857 19.3373L26.5722 19.767L27.1771 19.939C27.3499 19.9819 27.4795 20.1539 27.4795 20.3257V20.4976C27.4795 20.7555 27.3067 20.9273 27.0475 20.9273Z" fill="#BC955C"/>
<path d="M92.6738 16.0974C92.6738 14.1248 94.121 12.3656 96.2644 12.3656C97.4438 12.3656 98.194 12.6854 98.9451 13.3252L98.4086 13.9116C97.873 13.4318 97.2292 13.0586 96.2112 13.0586C94.6566 13.0586 93.4773 14.3914 93.4773 15.9908V16.0441C93.4773 17.7501 94.5494 19.0296 96.3184 19.0296C97.176 19.0296 97.873 18.7097 98.4086 18.3365V16.5239H96.2112V15.8308H99.1588V18.6564C98.5159 19.2428 97.4979 19.7226 96.2644 19.7226C94.121 19.7759 92.6738 18.1232 92.6738 16.0974Z" fill="#9F2241"/>
<path d="M108.38 16.0974C108.38 14.4447 107.201 13.1119 105.539 13.1119C103.931 13.1119 102.752 14.4447 102.752 16.0441V16.0974C102.752 17.6968 103.931 19.0296 105.593 19.0296C107.201 19.0296 108.38 17.6968 108.38 16.0974ZM101.894 16.0974C101.894 14.1248 103.395 12.3656 105.539 12.3656C107.736 12.3656 109.184 14.0715 109.184 16.0441V16.0974C109.184 18.0699 107.683 19.7759 105.539 19.7759C103.342 19.7759 101.894 18.0166 101.894 16.0974Z" fill="#9F2241"/>
<path d="M115.186 16.3638H112.935V18.8695H115.347C116.419 18.8695 117.116 18.3897 117.116 17.59C117.062 16.8436 116.419 16.3638 115.186 16.3638ZM116.687 14.3913C116.687 13.6982 116.097 13.2184 115.133 13.2184H112.935V15.6707H115.079C115.991 15.6707 116.687 15.2443 116.687 14.3913ZM112.077 12.472H115.133C115.991 12.472 116.579 12.6852 117.009 13.1118C117.276 13.4316 117.491 13.8048 117.491 14.2313V14.2847C117.491 15.2443 116.901 15.6707 116.366 15.9373C117.223 16.2039 117.92 16.6837 117.92 17.6433V17.6966C117.92 18.9228 116.901 19.6159 115.294 19.6159H112.131L112.077 12.472Z" fill="#9F2241"/>
<path d="M122.816 12.472H122.013V19.6159H122.816V12.472Z" fill="#9F2241"/>
<path d="M126.142 12.472H131.341V13.2184H126.946V15.6707H130.858V16.3638H126.946V18.9228H131.394V19.6159H126.142V12.472Z" fill="#9F2241"/>
<path d="M137.076 16.1506C138.148 16.1506 138.899 15.6174 138.899 14.6578V14.6045C138.899 13.6982 138.202 13.2184 137.076 13.2184H134.879V16.1506H137.076ZM134.021 12.472H137.13C138.041 12.472 138.684 12.7386 139.167 13.1651C139.488 13.4849 139.703 14.0181 139.703 14.5512V14.6045C139.703 15.7774 138.845 16.4704 137.773 16.6837L139.971 19.6159H138.952L136.862 16.8436H134.879V19.6159H134.075L134.021 12.472Z" fill="#9F2241"/>
<path d="M142.651 12.472H143.401L147.903 18.2298V12.472H148.706V19.6159H148.064L143.454 13.7515V19.6159H142.651V12.472Z" fill="#9F2241"/>
<path d="M158.087 16.0974C158.087 14.4447 156.907 13.1119 155.245 13.1119C153.585 13.1119 152.458 14.4447 152.458 16.0441V16.0974C152.458 17.6968 153.638 19.0296 155.3 19.0296C156.907 19.0296 158.087 17.6968 158.087 16.0974ZM151.601 16.0974C151.601 14.1248 153.102 12.3656 155.245 12.3656C157.443 12.3656 158.89 14.0715 158.89 16.0441V16.0974C158.89 18.0699 157.39 19.7759 155.245 19.7759C153.048 19.7759 151.601 18.0166 151.601 16.0974Z" fill="#9F2241"/>
<path d="M166.394 13.2184V18.8695H168.109C169.931 18.8695 171.111 17.6433 171.111 16.0973V16.044C171.111 14.4979 169.985 13.2184 168.109 13.2184H166.394ZM165.59 12.472H168.109C170.36 12.472 171.914 14.0181 171.914 15.9906V16.044C171.914 18.0164 170.36 19.6159 168.109 19.6159H165.59V12.472Z" fill="#9F2241"/>
<path d="M174.434 12.472H179.633V13.2184H175.238V15.6707H179.151V16.3638H175.238V18.9228H179.687V19.6159H174.434V12.472Z" fill="#9F2241"/>
<path d="M186.118 12.472H186.922V18.9228H190.942V19.6159H186.118V12.472Z" fill="#9F2241"/>
<path d="M197.964 17.0035L196.356 13.3783L194.748 17.0035H197.964ZM195.927 12.472H196.677L199.947 19.6692H199.089L198.232 17.8032H194.319L193.462 19.6692H192.604L195.927 12.472Z" fill="#9F2241"/>
<path d="M93.824 28.304C93.824 26.2249 95.3785 24.5722 97.576 24.5722C98.9159 24.5722 99.7193 25.052 100.416 25.6917L99.3983 26.8113C98.8618 26.2782 98.2721 26.0116 97.576 26.0116C96.3966 26.0116 95.485 27.0246 95.485 28.2507V28.304C95.485 29.5302 96.3425 30.5431 97.576 30.5431C98.4335 30.5431 98.9159 30.2233 99.4515 29.6901L100.47 30.7031C99.7193 31.5028 98.9159 31.9825 97.5219 31.9825C95.3785 31.9825 93.824 30.3299 93.824 28.304Z" fill="#9F2241"/>
<path d="M103.254 24.7344H101.7V31.8783H103.254V24.7344Z" fill="#9F2241"/>
<path d="M105.13 28.8402V24.7885H106.683V28.7869C106.683 29.9598 107.273 30.5463 108.238 30.5463C109.203 30.5463 109.792 29.9598 109.792 28.8402V24.7885H111.347V28.7869C111.347 30.9727 110.114 31.9857 108.185 31.9857C106.308 31.9857 105.13 30.9194 105.13 28.8402Z" fill="#9F2241"/>
<path d="M116.009 30.4371C117.296 30.4371 118.154 29.5841 118.154 28.3046C118.154 27.0252 117.296 26.1722 116.009 26.1722H114.777V30.4904L116.009 30.4371ZM113.169 24.7328H115.956C118.207 24.7328 119.761 26.2788 119.761 28.2513V28.3046C119.761 30.2772 118.207 31.8766 115.956 31.8766H113.169V24.7328Z" fill="#9F2241"/>
<path d="M124.908 28.892L123.943 26.5996L122.979 28.892H124.908ZM123.3 24.6803H124.748L127.803 31.8775H126.142L125.498 30.2782H122.443L121.8 31.8775H120.191L123.3 24.6803Z" fill="#9F2241"/>
<path d="M131.77 30.4371C133.056 30.4371 133.913 29.5841 133.913 28.3046C133.913 27.0252 133.056 26.1722 131.77 26.1722H130.536V30.4904L131.77 30.4371ZM128.929 24.7328H131.716C133.967 24.7328 135.522 26.2788 135.522 28.2513V28.3046C135.522 30.2772 133.967 31.8766 131.716 31.8766H128.929V24.7328Z" fill="#9F2241"/>
<path d="M142.971 30.4371C144.258 30.4371 145.115 29.5841 145.115 28.3046C145.115 27.0252 144.258 26.1722 142.971 26.1722H141.738V30.4904L142.971 30.4371ZM140.13 24.7328H142.918C145.168 24.7328 146.723 26.2788 146.723 28.2513V28.3046C146.723 30.2772 145.168 31.8766 142.918 31.8766H140.13V24.7328Z" fill="#9F2241"/>
<path d="M148.276 24.7344H153.69V26.1206H149.831V27.56H153.208V28.9461H149.831V30.4922H153.743V31.8783H148.276V24.7344Z" fill="#9F2241"/>
<path d="M158.3 24.7344H160.015L161.892 27.7199L163.767 24.7344H165.482V31.8783H163.928V27.1868L161.892 30.2256H161.838L159.855 27.2401V31.8783H158.3V24.7344Z" fill="#9F2241"/>
<path d="M170.36 22.3885L171.7 22.9748L170.36 24.2011H169.181L170.36 22.3885ZM167.359 24.7342H172.772V26.1203H168.912V27.5597H172.289V28.9458H168.912V30.4386H172.826V31.8247H167.359V24.7342Z" fill="#9F2241"/>
<path d="M176.364 28.2531L173.952 24.7344H175.774L177.276 27.0269L178.829 24.7344H180.598L178.186 28.1998L180.706 31.8783H178.883L177.221 29.4259L175.614 31.8783H173.845L176.364 28.2531Z" fill="#9F2241"/>
<path d="M183.439 24.7344H181.885V31.8783H183.439V24.7344Z" fill="#9F2241"/>
<path d="M185.046 28.3057C185.046 26.2265 186.6 24.5739 188.797 24.5739C190.137 24.5739 190.942 25.0537 191.638 25.6934L190.62 26.813C190.084 26.2799 189.494 26.0133 188.797 26.0133C187.618 26.0133 186.707 27.0262 186.707 28.2524V28.3057C186.707 29.5319 187.565 30.5449 188.797 30.5449C189.655 30.5449 190.137 30.2249 190.674 29.6919L191.692 30.7048C190.942 31.5045 190.137 31.9843 188.744 31.9843C186.6 31.9843 185.046 30.3316 185.046 28.3057Z" fill="#9F2241"/>
<path d="M198.338 28.3057C198.338 27.0262 197.427 26.0666 196.141 26.0666C194.854 26.0666 193.997 27.0795 193.997 28.3057V28.3591C193.997 29.5853 194.908 30.5982 196.194 30.5982C197.481 30.5449 198.338 29.5319 198.338 28.3057ZM192.389 28.3057C192.389 26.2265 193.997 24.5739 196.194 24.5739C198.391 24.5739 200 26.2265 200 28.2524V28.3057C200 30.3316 198.391 31.9843 196.194 31.9843C193.997 31.9843 192.389 30.3316 192.389 28.3057Z" fill="#9F2241"/>
</g>
<defs>
<clipPath id="clip0_13_486">
<rect width="200" height="45" fill="white"/>
</clipPath>
</defs>
</svg>
