<svg width="27" height="21" viewBox="0 0 27 21" fill="none" xmlns="http://www.w3.org/2000/svg">
<path d="M26.1051 2.80487C25.1547 3.21537 24.142 3.48746 23.0861 3.61958C24.1723 2.98102 25.0014 1.97757 25.3911 0.768087C24.3784 1.36261 23.2602 1.78255 22.0686 2.01689C21.1069 1.00873 19.7364 0.384323 18.2412 0.384323C15.3404 0.384323 13.005 2.70263 13.005 5.54469C13.005 5.95362 13.0402 6.34682 13.1264 6.72115C8.77039 6.51196 4.91592 4.45631 2.32657 1.32486C1.87451 2.09711 1.60935 2.98102 1.60935 3.93257C1.60935 5.71927 2.54381 7.30308 3.93673 8.22003C3.09491 8.2043 2.26907 7.96366 1.56941 7.58462C1.56941 7.60034 1.56941 7.62079 1.56941 7.64124C1.56941 10.1483 3.38563 12.2307 5.76732 12.7104C5.34082 12.8252 4.87599 12.8802 4.39358 12.8802C4.05813 12.8802 3.71949 12.8614 3.40161 12.7922C4.08049 14.8352 6.00693 16.3373 8.29757 16.386C6.5149 17.7591 4.25141 18.5864 1.80103 18.5864C1.37134 18.5864 0.959216 18.5675 0.547092 18.5156C2.86808 19.9893 5.61877 20.8308 8.5851 20.8308C18.2269 20.8308 23.4982 12.9667 23.4982 6.15022C23.4982 5.92216 23.4902 5.70197 23.479 5.48335C24.5189 4.75672 25.3927 3.84921 26.1051 2.80487Z" fill="white"/>
</svg>
